<svg width="35" height="279" viewBox="0 0 35 279" fill="none" xmlns="http://www.w3.org/2000/svg">
<rect x="16.5" width="2" height="112" fill="#E4EEFC"/>
<path d="M17.8643 140.312C17.8643 145.592 14.4083 149.288 9.48831 149.288C4.59231 149.288 1.18431 145.592 1.18431 140.312C1.18431 135.056 4.61631 131.336 9.51231 131.336C14.4323 131.336 17.8643 135.032 17.8643 140.312ZM15.3923 140.312C15.3923 136.28 13.0403 133.616 9.51231 133.616C5.98431 133.616 3.65631 136.28 3.65631 140.312C3.65631 144.344 5.98431 147.032 9.51231 147.032C13.0403 147.032 15.3923 144.32 15.3923 140.312ZM23.4646 149H21.1126V131.648H27.6646C31.3846 131.648 33.5926 133.616 33.5926 136.856C33.5926 139.256 32.3926 140.984 30.2326 141.68L33.7606 149H31.1446L27.9046 142.136H23.4646V149ZM23.4646 133.76V140.048H27.6886C29.8726 140.048 31.1206 138.872 31.1206 136.88C31.1206 134.864 29.8246 133.76 27.6646 133.76H23.4646Z" fill="#CBCBCB"/>
<rect x="16.5" y="167" width="2" height="112" fill="#E4EEFC"/>
</svg>
